/* XPM */
static char * menu_shape2_xpm[] = {
"278 66 2 1",
" 	c None",
".	c #000000",
"                                                                                                                                                                                                                                                    ..................................",
"                                                                                                                                                                                                                                                     .................................",
"                                                                                                                                                                                                                                                      ................................",
"                                                                                                                                                                                                                                                       ...............................",
"                                                                                                                                                                                                                                                        ..............................",
"                                                                                                                                                                                                                                                         .............................",
"                                                                                                                                                                                                                                                          ............................",
"                                                                                                                                                                                                                                                           ...........................",
"                                                                                                                                                                                                                                                            ..........................",
"                                                                                                                                                                                                                                                             .........................",
"                                                                                                                                                                                                                                                              ........................",
"                                                                                                                                                                                                                                                               .......................",
"                                                                                                                                                                                                                                                                ......................",
"                                                                                                                                                                                                                                                                 .....................",
"                                                                                                                                                                                                                                                                  ....................",
"                                                                                                                                                                                                                                                                   ...................",
"                                                                                                                                                                                                                                                                    ..................",
"                                                                                                                                                                                                                                                                     .................",
"                                                                                                                                                                                                                                                                      ................",
"                                                                                                                                                                                                                                                                       ...............",
"                                                                                                                                                                                                                                                                        ............. ",
"                                                                                                                                                                                                                                                                         .............",
"                                                                                                                                                                                                                                                                          ............",
"                                                                                                                                                                                                                                                                           ...........",
"                                                                                                                                                                                                                                                                            ..........",
"                                                                                                                                                                                                                                                                             .........",
"                                                                                                                                                                                                                                                                              ........",
"                                                                                                                                                                                                                                                                               .......",
"                                                                                                                                                                                                                                                                                ......",
"                                                                                                                                                                                                                                                                                 .....",
"                                                                                                                                                                                                                                                                                  ....",
"                                                                                                                                                                                                                                                                                   ...",
"                                                                                                                                                                                                                                                                                    ..",
"                                                                                                                                                                                                                                                                                    ..",
"                                                                                                                                                                                                                                                                                   ...",
"                                                                                                                                                                                                                                                                                  ....",
"                                                                                                                                                                                                                                                                                 .....",
"                                                                                                                                                                                                                                                                                ......",
"                                                                                                                                                                                                                                                                               .......",
"                                                                                                                                                                                                                                                                              ........",
"                                                                                                                                                                                                                                                                             .........",
"                                                                                                                                                                                                                                                                            ..........",
"                                                                                                                                                                                                                                                                           ...........",
"                                                                                                                                                                                                                                                                          ............",
"                                                                                                                                                                                                                                                                         .............",
"                                                                                                                                                                                                                                                                        ............. ",
"                                                                                                                                                                                                                                                                       ...............",
"                                                                                                                                                                                                                                                                      ................",
"                                                                                                                                                                                                                                                                     .................",
"                                                                                                                                                                                                                                                                    ..................",
"                                                                                                                                                                                                                                                                   ...................",
"                                                                                                                                                                                                                                                                  ....................",
"                                                                                                                                                                                                                                                                 .....................",
"                                                                                                                                                                                                                                                                ......................",
"                                                                                                                                                                                                                                                               .......................",
"                                                                                                                                                                                                                                                              ........................",
"                                                                                                                                                                                                                                                             .........................",
"                                                                                                                                                                                                                                                            ..........................",
"                                                                                                                                                                                                                                                           ...........................",
"                                                                                                                                                                                                                                                          ............................",
"                                                                                                                                                                                                                                                         .............................",
"                                                                                                                                                                                                                                                        ..............................",
"                                                                                                                                                                                                                                                       ...............................",
"                                                                                                                                                                                                                                                      ................................",
"                                                                                                                                                                                                                                                     .................................",
"                                                                                                                                                                                                                                                    .................................."};
